<?xml version="1.0" encoding="utf-8"?>
<!-- Generator: Adobe Illustrator 18.1.1, SVG Export Plug-In . SVG Version: 6.00 Build 0)  -->
<svg version="1.1" id="Layer_1" xmlns="http://www.w3.org/2000/svg" xmlns:xlink="http://www.w3.org/1999/xlink" x="0px" y="0px"
	 width="500px" height="169.6px" viewBox="0 0 500 169.6" enable-background="new 0 0 500 169.6" xml:space="preserve">
<g>
	<path fill="#E0DFE1" d="M60.5,21.8c-1.7,0.7-2.9,1.9-3.5,3.7c-0.6,1.8-1,4.6-1,8.5v57.1c0,8.8-0.2,16.7-0.5,23.5
		c-0.3,6.8-1.1,12.5-2.2,17.2c-1.2,4.9-3.2,9.2-6.2,13.1c-2.9,3.8-6.7,6.8-11.2,9.1c-4.5,2.2-9.7,3.3-15.5,3.3
		c-5.1,0-9.4-0.9-13.1-2.8c-5-2.6-7.5-6.2-7.5-10.7c0-2.4,0.8-4.4,2.3-6c1.5-1.5,3.5-2.3,5.9-2.3c2.5,0,4.5,0.8,6.2,2.3
		c1.6,1.5,2.4,3.6,2.4,6.2c0,2.2-0.6,3.9-1.8,5.3c-1.2,1.3-2.8,2.2-4.8,2.6c0.9,0.9,2.3,1.6,4.3,1.9c2,0.4,3.8,0.6,5.7,0.6
		c4.5,0,8.4-1.2,11.7-3.5c3.3-2.3,5.6-5.6,7-9.7c1.1-3.2,1.8-7.3,2.1-12.1c0.4-4.8,0.5-12.7,0.5-23.6V34c0-3.9-0.3-6.7-1-8.5
		c-0.6-1.8-1.8-3-3.5-3.7c-1.7-0.7-4.4-1.1-8.2-1.2v-3.1c4.3,0.3,11,0.5,19.9,0.5c8.3,0,14.9-0.2,19.8-0.5v3.1
		C65,20.8,62.2,21.2,60.5,21.8z"/>
	<path fill="#E0DFE1" d="M96.2,111.4c1.5,0.9,2.8,2.1,3.7,3.7c0.9,1.5,1.3,3.2,1.3,5c0,1.8-0.4,3.4-1.3,4.9
		c-0.9,1.5-2.1,2.7-3.7,3.7c-1.5,0.9-3.2,1.4-5,1.4c-1.8,0-3.4-0.5-5-1.4c-1.5-0.9-2.8-2.1-3.7-3.7c-0.9-1.5-1.3-3.2-1.3-4.9
		c0-1.8,0.4-3.4,1.3-5c0.9-1.5,2.1-2.8,3.7-3.7c1.5-0.9,3.2-1.3,5-1.3C93,110.1,94.7,110.6,96.2,111.4z"/>
	<path fill="#E0DFE1" d="M144.5,111.3c0,3.9,0.4,6.7,1.2,8.5c0.8,1.8,2.3,3,4.4,3.7c2.1,0.7,5.5,1.1,10.1,1.2v3.1
		c-5.4-0.3-13-0.5-22.9-0.5c-8.9,0-15.6,0.2-19.9,0.5v-3.1c3.8-0.2,6.5-0.6,8.2-1.2c1.7-0.7,2.9-1.9,3.5-3.7c0.6-1.8,1-4.6,1-8.5V34
		c0-3.9-0.3-6.7-1-8.5c-0.6-1.8-1.8-3-3.5-3.7c-1.7-0.7-4.4-1.1-8.2-1.2v-3.1c4.3,0.3,10.7,0.5,19,0.5c4.1,0,8.5,0,13.4-0.2
		c4.9-0.1,8.3-0.2,10.1-0.2c8.2,0,15.1,1.3,20.7,3.8c5.6,2.6,9.9,6.2,12.7,10.8c2.8,4.6,4.2,10,4.2,16.1c0,5.7-1.3,11.2-3.8,16.4
		c-2.5,5.3-6.9,9.7-13,13.2c-6.1,3.5-14.2,5.3-24.2,5.3h-12V111.3z M176.1,72c3.9-5.4,5.9-12.7,5.9-21.9c0-6.7-0.9-12.2-2.6-16.5
		c-1.7-4.3-4.5-7.5-8.3-9.7c-3.8-2.2-8.8-3.2-15-3.2c-3.2,0-5.7,0.4-7.3,1.1c-1.6,0.7-2.7,2-3.3,3.9c-0.6,1.9-0.9,4.7-0.9,8.4v46.1
		H155C165.2,80.1,172.2,77.4,176.1,72z"/>
	<path fill="#E0DFE1" d="M247.1,51.9c-2.5-2.2-6.1-3.3-10.7-3.3c-7.4,0-12.5,1.9-15.4,5.6c2.1,0.5,3.8,1.6,5.2,3.3
		c1.4,1.7,2.1,3.8,2.1,6.2c0,2.6-0.8,4.7-2.5,6.2c-1.6,1.5-3.9,2.2-6.7,2.2c-2.6,0-4.7-0.9-6.2-2.7c-1.5-1.8-2.2-4.1-2.2-7
		c0-4.1,2.4-7.8,7.3-11.1c2.5-1.7,5.7-3.1,9.4-4.2c3.7-1.1,7.9-1.7,12.4-1.7c4.3,0,8,0.5,11.3,1.6c3.2,1,5.8,2.5,7.6,4.3
		c2.4,2.4,4,5.3,4.9,8.5c0.9,3.2,1.3,7.7,1.3,13.4v43.3c0,2.6,0.4,4.5,1.1,5.6c0.7,1.2,2,1.8,3.7,1.8c1.3,0,2.4-0.3,3.5-0.8
		c1.1-0.6,2.2-1.4,3.5-2.4l1.8,2.7c-1.8,1.4-3.3,2.4-4.6,3.2c-1.2,0.8-2.6,1.4-4.2,1.8c-1.6,0.5-3.4,0.7-5.5,0.7
		c-5,0-8.5-1.3-10.5-3.8c-2-2.5-2.9-5.9-2.9-10.1c-3,5-6.7,8.6-11,10.7s-8.6,3.2-13,3.2c-3.6,0-6.9-0.6-9.9-1.9
		c-3-1.2-5.4-3.2-7.2-5.8c-1.8-2.6-2.7-5.9-2.7-9.8c0-4,1-7.3,2.9-10.1c1.9-2.8,4.6-5.2,8.1-7.3c3.5-2.1,8.2-4.4,14.1-6.9
		c1-0.4,3.5-1.4,7.5-3c4-1.6,6.8-3.2,8.6-4.9c1.8-1.6,2.6-3.4,2.6-5.3v-9.7C250.8,58.2,249.6,54.1,247.1,51.9z M247,83.6
		c-1.8,1-5.5,2.9-11.1,5.6c-3,1.4-5.5,2.9-7.6,4.4c-2.1,1.5-3.9,3.5-5.3,6c-1.5,2.5-2.2,5.7-2.2,9.4c0,4.5,1.1,7.9,3.4,10.2
		c2.3,2.3,5.3,3.5,9.1,3.5c6.9,0,12.8-3.9,17.6-11.8V80.3C250.1,81.5,248.8,82.5,247,83.6z"/>
	<path fill="#E0DFE1" d="M314,55.9c2.2-3,4.8-5.6,7.9-7.5c3-2,6.3-3,9.7-3c2.7,0,5.2,0.5,7.3,1.6c2.2,1.1,3.8,2.6,5.1,4.5
		c1.2,1.9,1.8,3.9,1.8,6.2c0,2.7-0.8,5.1-2.4,7c-1.6,1.9-3.8,2.9-6.5,2.9c-2.3,0-4.2-0.7-5.9-2.2c-1.6-1.4-2.4-3.4-2.4-5.9
		c0-3.4,1.8-6.2,5.3-8.4c-0.7-1-1.8-1.5-3.3-1.5c-4.1,0-7.8,1.6-11.1,4.7c-3.3,3.1-5.9,7-7.8,11.6c-1.9,4.6-2.8,8.9-2.8,12.9v33
		c0,4.8,1.4,8.2,4.1,10c2.7,1.9,6.9,2.8,12.4,2.8v3.3c-12.8-0.4-20.8-0.6-24-0.6c-2.7,0-8.9,0.2-18.4,0.6v-3.3c2.9,0,5.3-0.3,7-1
		c1.7-0.7,2.9-1.8,3.7-3.4c0.8-1.6,1.2-3.9,1.2-6.8V64.6c0-4.8-0.9-8.3-2.6-10.5c-1.8-2.2-4.8-3.3-9.2-3.3v-3.3
		c3.2,0.3,6.5,0.5,9.7,0.5c6.6,0,12-0.7,16.2-2.1v19.5C310.1,62.1,311.8,59,314,55.9z"/>
	<path fill="#E0DFE1" d="M383.3,55.9c2.2-3,4.8-5.6,7.9-7.5c3-2,6.3-3,9.7-3c2.7,0,5.2,0.5,7.3,1.6c2.2,1.1,3.8,2.6,5.1,4.5
		c1.2,1.9,1.8,3.9,1.8,6.2c0,2.7-0.8,5.1-2.4,7c-1.6,1.9-3.8,2.9-6.5,2.9c-2.3,0-4.2-0.7-5.9-2.2c-1.6-1.4-2.4-3.4-2.4-5.9
		c0-3.4,1.8-6.2,5.3-8.4c-0.7-1-1.8-1.5-3.3-1.5c-4.1,0-7.8,1.6-11.1,4.7c-3.3,3.1-5.9,7-7.8,11.6c-1.9,4.6-2.8,8.9-2.8,12.9v33
		c0,4.8,1.4,8.2,4.1,10c2.7,1.9,6.9,2.8,12.4,2.8v3.3c-12.8-0.4-20.8-0.6-24-0.6c-2.7,0-8.9,0.2-18.4,0.6v-3.3c2.9,0,5.3-0.3,7-1
		c1.7-0.7,2.9-1.8,3.7-3.4c0.8-1.6,1.2-3.9,1.2-6.8V64.6c0-4.8-0.9-8.3-2.6-10.5c-1.8-2.2-4.8-3.3-9.2-3.3v-3.3
		c3.2,0.3,6.5,0.5,9.7,0.5c6.6,0,12-0.7,16.2-2.1v19.5C379.5,62.1,381.1,59,383.3,55.9z"/>
	<path fill="#E0DFE1" d="M480.4,119.4c-2.7,3.2-6,5.7-10,7.7c-4,2-8.4,3-13.4,3c-7.4,0-13.8-1.7-19.2-5.1
		c-5.4-3.4-9.5-8.1-12.4-14.2c-2.8-6.1-4.3-13.2-4.3-21.1c0-9,1.4-16.9,4.3-23.5c2.9-6.6,7-11.8,12.3-15.3
		c5.3-3.6,11.5-5.4,18.6-5.4c9.3,0,16.5,2.8,21.6,8.5c5,5.7,7.6,14.2,7.6,25.8H437c-0.4,2.7-0.5,6-0.5,10c0,6.8,1.1,12.8,3.4,18
		c2.3,5.1,5.2,9.1,8.9,11.8c3.7,2.7,7.5,4.1,11.6,4.1c10.5,0,18.1-5.2,22.9-15.6l3.1,1.2C485.1,112.8,483.1,116.2,480.4,119.4z
		 M469.4,62.5c-1.1-4.3-2.7-7.7-5-10.3c-2.3-2.5-5.1-3.8-8.4-3.8c-3.2,0-6.1,1-8.8,3.1c-2.7,2.1-5,5.2-6.8,9.4
		c-1.9,4.2-3,9.5-3.5,15.8h33.9C470.9,71.5,470.4,66.8,469.4,62.5z M452.4,23.6c1.6-2.8,3.5-6.4,5.7-10.7c2.2-4.3,4.1-7.4,5.6-9.4
		c1.8-2.3,3.8-3.5,5.9-3.5c1.3,0,2.4,0.4,3.4,1.1c1.4,1.2,2.1,2.6,2.1,4.3c0,1.7-0.7,3.5-2.1,5.3c-1.5,1.9-3.8,4.2-6.8,6.8
		c-3,2.6-5.9,5.2-8.6,7.6c-2.7,2.5-5.8,5.6-9.3,9.2l-1.7-1.4C448.9,29.6,450.8,26.4,452.4,23.6z"/>
</g>
<g>
	<path fill="#565656" d="M36.6,66c-0.6,0.2-1,0.7-1.3,1.3C35.1,68,35,69,35,70.4v20.8c0,3.2-0.1,6.1-0.2,8.5
		c-0.1,2.5-0.4,4.6-0.8,6.2c-0.4,1.8-1.2,3.4-2.2,4.7c-1.1,1.4-2.4,2.5-4.1,3.3c-1.7,0.8-3.5,1.2-5.6,1.2c-1.8,0-3.4-0.3-4.8-1
		c-1.8-0.9-2.7-2.2-2.7-3.9c0-0.9,0.3-1.6,0.8-2.2c0.6-0.6,1.3-0.8,2.1-0.8c0.9,0,1.7,0.3,2.2,0.8c0.6,0.6,0.9,1.3,0.9,2.2
		c0,0.8-0.2,1.4-0.6,1.9c-0.4,0.5-1,0.8-1.7,1c0.3,0.3,0.9,0.6,1.6,0.7c0.7,0.1,1.4,0.2,2.1,0.2c1.6,0,3.1-0.4,4.3-1.3
		c1.2-0.8,2-2,2.6-3.5c0.4-1.2,0.6-2.7,0.8-4.4c0.1-1.8,0.2-4.6,0.2-8.6V70.4c0-1.4-0.1-2.5-0.3-3.1c-0.2-0.6-0.7-1.1-1.3-1.3
		c-0.6-0.2-1.6-0.4-3-0.4v-1.1c1.6,0.1,4,0.2,7.3,0.2c3,0,5.4-0.1,7.2-0.2v1.1C38.3,65.6,37.3,65.8,36.6,66z"/>
	<path fill="#565656" d="M49.6,98.6c0.6,0.3,1,0.8,1.3,1.3c0.3,0.6,0.5,1.2,0.5,1.8c0,0.6-0.2,1.2-0.5,1.8c-0.3,0.6-0.8,1-1.3,1.3
		c-0.6,0.3-1.2,0.5-1.8,0.5c-0.6,0-1.3-0.2-1.8-0.5c-0.6-0.3-1-0.8-1.3-1.3c-0.3-0.6-0.5-1.2-0.5-1.8c0-0.6,0.2-1.3,0.5-1.8
		c0.3-0.6,0.8-1,1.3-1.3c0.6-0.3,1.2-0.5,1.8-0.5C48.5,98.1,49.1,98.3,49.6,98.6z"/>
	<path fill="#565656" d="M67.2,98.6c0,1.4,0.1,2.5,0.4,3.1c0.3,0.6,0.8,1.1,1.6,1.3c0.8,0.2,2,0.4,3.7,0.4v1.1
		c-2-0.1-4.7-0.2-8.3-0.2c-3.2,0-5.7,0.1-7.3,0.2v-1.1c1.4-0.1,2.4-0.2,3-0.4c0.6-0.2,1-0.7,1.3-1.3c0.2-0.6,0.3-1.7,0.3-3.1V70.4
		c0-1.4-0.1-2.5-0.3-3.1c-0.2-0.6-0.7-1.1-1.3-1.3c-0.6-0.2-1.6-0.4-3-0.4v-1.1c1.6,0.1,3.9,0.2,6.9,0.2c1.5,0,3.1,0,4.9-0.1
		c1.8,0,3-0.1,3.7-0.1c3,0,5.5,0.5,7.5,1.4c2,0.9,3.6,2.2,4.6,3.9c1,1.7,1.5,3.6,1.5,5.9c0,2.1-0.5,4.1-1.4,6
		c-0.9,1.9-2.5,3.5-4.7,4.8c-2.2,1.3-5.2,1.9-8.8,1.9h-4.4V98.6z M78.7,84.3c1.4-2,2.1-4.6,2.1-8c0-2.4-0.3-4.4-0.9-6
		c-0.6-1.6-1.6-2.7-3-3.5c-1.4-0.8-3.2-1.2-5.5-1.2c-1.2,0-2.1,0.1-2.7,0.4c-0.6,0.3-1,0.7-1.2,1.4c-0.2,0.7-0.3,1.7-0.3,3v16.8H71
		C74.7,87.2,77.3,86.2,78.7,84.3z"/>
	<path fill="#565656" d="M104.5,76.9c-0.9-0.8-2.2-1.2-3.9-1.2c-2.7,0-4.6,0.7-5.6,2c0.8,0.2,1.4,0.6,1.9,1.2
		c0.5,0.6,0.8,1.4,0.8,2.3c0,1-0.3,1.7-0.9,2.3c-0.6,0.5-1.4,0.8-2.4,0.8c-1,0-1.7-0.3-2.3-1c-0.5-0.6-0.8-1.5-0.8-2.5
		c0-1.5,0.9-2.8,2.7-4c0.9-0.6,2.1-1.1,3.4-1.5c1.4-0.4,2.9-0.6,4.5-0.6c1.6,0,2.9,0.2,4.1,0.6c1.2,0.4,2.1,0.9,2.8,1.6
		c0.9,0.9,1.5,1.9,1.8,3.1c0.3,1.2,0.5,2.8,0.5,4.9v15.8c0,0.9,0.1,1.6,0.4,2c0.3,0.4,0.7,0.6,1.3,0.6c0.5,0,0.9-0.1,1.3-0.3
		c0.4-0.2,0.8-0.5,1.3-0.9l0.6,1c-0.7,0.5-1.2,0.9-1.7,1.2c-0.4,0.3-1,0.5-1.5,0.7c-0.6,0.2-1.2,0.2-2,0.2c-1.8,0-3.1-0.5-3.8-1.4
		c-0.7-0.9-1.1-2.1-1.1-3.7c-1.1,1.8-2.4,3.1-4,3.9c-1.6,0.8-3.1,1.1-4.7,1.1c-1.3,0-2.5-0.2-3.6-0.7c-1.1-0.5-2-1.2-2.6-2.1
		c-0.7-1-1-2.1-1-3.6c0-1.4,0.4-2.7,1.1-3.7c0.7-1,1.7-1.9,3-2.7c1.3-0.8,3-1.6,5.1-2.5c0.4-0.1,1.3-0.5,2.7-1.1
		c1.4-0.6,2.5-1.2,3.1-1.8c0.6-0.6,1-1.2,1-1.9v-3.5C105.9,79.2,105.4,77.7,104.5,76.9z M104.5,88.5c-0.6,0.4-2,1.1-4,2
		c-1.1,0.5-2,1-2.8,1.6c-0.8,0.5-1.4,1.3-1.9,2.2c-0.5,0.9-0.8,2.1-0.8,3.4c0,1.6,0.4,2.9,1.2,3.7c0.8,0.8,1.9,1.3,3.3,1.3
		c2.5,0,4.6-1.4,6.4-4.3V87.3C105.6,87.7,105.1,88.1,104.5,88.5z"/>
	<path fill="#565656" d="M128.9,78.4c0.8-1.1,1.8-2,2.9-2.7c1.1-0.7,2.3-1.1,3.5-1.1c1,0,1.9,0.2,2.7,0.6c0.8,0.4,1.4,0.9,1.8,1.6
		c0.4,0.7,0.7,1.4,0.7,2.2c0,1-0.3,1.8-0.9,2.5c-0.6,0.7-1.4,1-2.4,1c-0.8,0-1.5-0.3-2.1-0.8c-0.6-0.5-0.9-1.2-0.9-2.1
		c0-1.2,0.6-2.3,1.9-3.1c-0.3-0.4-0.7-0.6-1.2-0.6c-1.5,0-2.8,0.6-4,1.7c-1.2,1.1-2.1,2.6-2.8,4.2c-0.7,1.7-1,3.2-1,4.7v12
		c0,1.8,0.5,3,1.5,3.6c1,0.7,2.5,1,4.5,1v1.2c-4.7-0.1-7.6-0.2-8.7-0.2c-1,0-3.2,0.1-6.7,0.2v-1.2c1.1,0,1.9-0.1,2.5-0.4
		c0.6-0.2,1.1-0.7,1.4-1.2c0.3-0.6,0.4-1.4,0.4-2.5V81.6c0-1.8-0.3-3-1-3.8c-0.6-0.8-1.8-1.2-3.4-1.2v-1.2c1.2,0.1,2.4,0.2,3.5,0.2
		c2.4,0,4.4-0.3,5.9-0.8v7.1C127.5,80.7,128.1,79.5,128.9,78.4z"/>
	<path fill="#565656" d="M154.1,78.4c0.8-1.1,1.8-2,2.9-2.7s2.3-1.1,3.5-1.1c1,0,1.9,0.2,2.7,0.6c0.8,0.4,1.4,0.9,1.8,1.6
		c0.4,0.7,0.7,1.4,0.7,2.2c0,1-0.3,1.8-0.9,2.5c-0.6,0.7-1.4,1-2.4,1c-0.8,0-1.5-0.3-2.1-0.8c-0.6-0.5-0.9-1.2-0.9-2.1
		c0-1.2,0.6-2.3,1.9-3.1c-0.3-0.4-0.7-0.6-1.2-0.6c-1.5,0-2.8,0.6-4,1.7c-1.2,1.1-2.1,2.6-2.8,4.2c-0.7,1.7-1,3.2-1,4.7v12
		c0,1.8,0.5,3,1.5,3.6c1,0.7,2.5,1,4.5,1v1.2c-4.7-0.1-7.6-0.2-8.7-0.2c-1,0-3.2,0.1-6.7,0.2v-1.2c1.1,0,1.9-0.1,2.5-0.4
		c0.6-0.2,1.1-0.7,1.4-1.2c0.3-0.6,0.4-1.4,0.4-2.5V81.6c0-1.8-0.3-3-1-3.8c-0.6-0.8-1.8-1.2-3.4-1.2v-1.2c1.2,0.1,2.4,0.2,3.5,0.2
		c2.4,0,4.4-0.3,5.9-0.8v7.1C152.7,80.7,153.3,79.5,154.1,78.4z"/>
	<path fill="#565656" d="M189.4,101.5c-1,1.2-2.2,2.1-3.6,2.8c-1.4,0.7-3.1,1.1-4.9,1.1c-2.7,0-5-0.6-7-1.8c-2-1.2-3.5-3-4.5-5.2
		c-1-2.2-1.6-4.8-1.6-7.7c0-3.3,0.5-6.1,1.6-8.6c1.1-2.4,2.5-4.3,4.5-5.6c1.9-1.3,4.2-2,6.8-2c3.4,0,6,1,7.8,3.1
		c1.8,2.1,2.8,5.2,2.8,9.4h-17.7c-0.1,1-0.2,2.2-0.2,3.6c0,2.5,0.4,4.7,1.2,6.5c0.8,1.9,1.9,3.3,3.2,4.3c1.3,1,2.7,1.5,4.2,1.5
		c3.8,0,6.6-1.9,8.3-5.7l1.1,0.4C191.1,99.1,190.4,100.3,189.4,101.5z M185.4,80.8c-0.4-1.6-1-2.8-1.8-3.7c-0.8-0.9-1.9-1.4-3.1-1.4
		c-1.2,0-2.2,0.4-3.2,1.1c-1,0.7-1.8,1.9-2.5,3.4c-0.7,1.5-1.1,3.5-1.3,5.7h12.3C185.9,84.1,185.8,82.4,185.4,80.8z M179.2,66.7
		c0.6-1,1.3-2.3,2.1-3.9c0.8-1.6,1.5-2.7,2-3.4c0.6-0.8,1.4-1.3,2.2-1.3c0.5,0,0.9,0.1,1.2,0.4c0.5,0.4,0.8,1,0.8,1.6
		c0,0.6-0.3,1.3-0.8,1.9c-0.6,0.7-1.4,1.5-2.5,2.5c-1.1,1-2.1,1.9-3.1,2.8c-1,0.9-2.1,2-3.4,3.4l-0.6-0.5
		C178,68.8,178.7,67.7,179.2,66.7z"/>
	<path fill="#565656" d="M242.3,103.5v1.1c-1.6-0.1-3.6-0.2-6.1-0.2c-3.2,0-5.6,0.1-7.3,0.2v-1.1c1.4-0.1,2.5-0.2,3.1-0.5
		c0.6-0.3,0.9-0.8,0.9-1.6c0-0.6-0.2-1.5-0.7-2.7l-3.5-9.3h-13.7l-2.3,6c-0.8,1.9-1.1,3.5-1.1,4.7c0,1.2,0.4,2.1,1.2,2.6
		c0.8,0.5,2,0.8,3.7,0.8v1.1c-2.2-0.1-4.3-0.2-6.5-0.2c-1.7,0-3.1,0.1-4.2,0.2v-1.1c1.9-0.4,3.4-2.1,4.5-4.9l13.3-34.4h0.9
		l13.8,35.7C239.3,102.2,240.6,103.4,242.3,103.5z M222,71.3l-6.5,16.9h12.8L222,71.3z"/>
	<path fill="#565656" d="M256.2,76.2c1.6-1.1,3.4-1.6,5.4-1.6c2,0,3.8,0.5,5.4,1.6c1.6,1.1,2.9,2.7,3.8,4.8c0.9,2.1,1.4,4.7,1.4,7.6
		c0,2.9-0.5,5.6-1.4,8.2c-0.9,2.5-2.4,4.6-4.3,6.2c-1.9,1.6-4.4,2.4-7.3,2.4c-1.4,0-2.7-0.3-3.9-0.8c-1.2-0.6-2.1-1.3-2.7-2.2v7.3
		c0,1.5,0.5,2.6,1.4,3.2c0.9,0.6,2.3,0.9,4.1,0.9v1.2c-0.5,0-1.6-0.1-3.2-0.1c-1.7-0.1-3.3-0.1-4.9-0.1c-1.2,0-2.4,0-3.7,0.1
		c-1.3,0.1-2.1,0.1-2.4,0.1v-1.2c1.4,0,2.4-0.3,2.9-0.8c0.6-0.5,0.8-1.4,0.8-2.8V81.6c0-1.8-0.3-3-1-3.8c-0.6-0.8-1.8-1.2-3.4-1.2
		v-1.2c1.2,0.1,2.4,0.2,3.5,0.2c2.4,0,4.4-0.3,5.9-0.8v6C253.4,78.8,254.6,77.3,256.2,76.2z M254.9,103.1c1,0.7,2.2,1,3.7,1
		c5.4,0,8.1-4.9,8.1-14.6c0-8.8-2.2-13.2-6.6-13.2c-1.7,0-3.3,0.6-4.6,1.8c-1.4,1.2-2.3,3-2.9,5.3v17
		C253.1,101.6,253.9,102.4,254.9,103.1z"/>
	<path fill="#565656" d="M289.2,76.2c1.6-1.1,3.4-1.6,5.4-1.6c2,0,3.8,0.5,5.4,1.6c1.6,1.1,2.9,2.7,3.8,4.8c0.9,2.1,1.4,4.7,1.4,7.6
		c0,2.9-0.5,5.6-1.4,8.2c-0.9,2.5-2.4,4.6-4.3,6.2c-1.9,1.6-4.4,2.4-7.3,2.4c-1.4,0-2.7-0.3-3.9-0.8c-1.2-0.6-2.1-1.3-2.7-2.2v7.3
		c0,1.5,0.5,2.6,1.4,3.2c0.9,0.6,2.3,0.9,4.1,0.9v1.2c-0.5,0-1.6-0.1-3.2-0.1c-1.7-0.1-3.3-0.1-4.9-0.1c-1.2,0-2.4,0-3.7,0.1
		c-1.3,0.1-2.1,0.1-2.4,0.1v-1.2c1.4,0,2.4-0.3,2.9-0.8c0.6-0.5,0.8-1.4,0.8-2.8V81.6c0-1.8-0.3-3-1-3.8c-0.6-0.8-1.8-1.2-3.4-1.2
		v-1.2c1.2,0.1,2.4,0.2,3.5,0.2c2.4,0,4.4-0.3,5.9-0.8v6C286.3,78.8,287.6,77.3,289.2,76.2z M287.9,103.1c1,0.7,2.2,1,3.7,1
		c5.4,0,8.1-4.9,8.1-14.6c0-8.8-2.2-13.2-6.6-13.2c-1.7,0-3.3,0.6-4.6,1.8c-1.4,1.2-2.3,3-2.9,5.3v17
		C286.1,101.6,286.8,102.4,287.9,103.1z"/>
	<path fill="#565656" d="M324.6,76.9c-0.9-0.8-2.2-1.2-3.9-1.2c-2.7,0-4.6,0.7-5.6,2c0.8,0.2,1.4,0.6,1.9,1.2
		c0.5,0.6,0.8,1.4,0.8,2.3c0,1-0.3,1.7-0.9,2.3c-0.6,0.5-1.4,0.8-2.4,0.8c-1,0-1.7-0.3-2.3-1c-0.5-0.6-0.8-1.5-0.8-2.5
		c0-1.5,0.9-2.8,2.7-4c0.9-0.6,2.1-1.1,3.4-1.5c1.4-0.4,2.9-0.6,4.5-0.6c1.6,0,2.9,0.2,4.1,0.6c1.2,0.4,2.1,0.9,2.8,1.6
		c0.9,0.9,1.5,1.9,1.8,3.1c0.3,1.2,0.5,2.8,0.5,4.9v15.8c0,0.9,0.1,1.6,0.4,2c0.3,0.4,0.7,0.6,1.3,0.6c0.5,0,0.9-0.1,1.3-0.3
		c0.4-0.2,0.8-0.5,1.3-0.9l0.6,1c-0.7,0.5-1.2,0.9-1.7,1.2c-0.4,0.3-1,0.5-1.5,0.7c-0.6,0.2-1.2,0.2-2,0.2c-1.8,0-3.1-0.5-3.8-1.4
		c-0.7-0.9-1.1-2.1-1.1-3.7c-1.1,1.8-2.4,3.1-4,3.9c-1.6,0.8-3.1,1.1-4.7,1.1c-1.3,0-2.5-0.2-3.6-0.7c-1.1-0.5-2-1.2-2.6-2.1
		c-0.7-1-1-2.1-1-3.6c0-1.4,0.4-2.7,1.1-3.7c0.7-1,1.7-1.9,3-2.7c1.3-0.8,3-1.6,5.1-2.5c0.4-0.1,1.3-0.5,2.7-1.1
		c1.4-0.6,2.5-1.2,3.1-1.8c0.6-0.6,1-1.2,1-1.9v-3.5C325.9,79.2,325.5,77.7,324.6,76.9z M324.5,88.5c-0.6,0.4-2,1.1-4,2
		c-1.1,0.5-2,1-2.8,1.6c-0.8,0.5-1.4,1.3-1.9,2.2c-0.5,0.9-0.8,2.1-0.8,3.4c0,1.6,0.4,2.9,1.2,3.7c0.8,0.8,1.9,1.3,3.3,1.3
		c2.5,0,4.6-1.4,6.4-4.3V87.3C325.6,87.7,325.2,88.1,324.5,88.5z"/>
	<path fill="#565656" d="M348.9,78.4c0.8-1.1,1.8-2,2.9-2.7c1.1-0.7,2.3-1.1,3.5-1.1c1,0,1.9,0.2,2.7,0.6c0.8,0.4,1.4,0.9,1.8,1.6
		c0.4,0.7,0.7,1.4,0.7,2.2c0,1-0.3,1.8-0.9,2.5c-0.6,0.7-1.4,1-2.4,1c-0.8,0-1.5-0.3-2.1-0.8c-0.6-0.5-0.9-1.2-0.9-2.1
		c0-1.2,0.6-2.3,1.9-3.1c-0.3-0.4-0.7-0.6-1.2-0.6c-1.5,0-2.8,0.6-4,1.7c-1.2,1.1-2.1,2.6-2.8,4.2c-0.7,1.7-1,3.2-1,4.7v12
		c0,1.8,0.5,3,1.5,3.6c1,0.7,2.5,1,4.5,1v1.2c-4.7-0.1-7.6-0.2-8.7-0.2c-1,0-3.2,0.1-6.7,0.2v-1.2c1.1,0,1.9-0.1,2.5-0.4
		c0.6-0.2,1.1-0.7,1.4-1.2c0.3-0.6,0.4-1.4,0.4-2.5V81.6c0-1.8-0.3-3-1-3.8c-0.6-0.8-1.8-1.2-3.4-1.2v-1.2c1.2,0.1,2.4,0.2,3.5,0.2
		c2.4,0,4.4-0.3,5.9-0.8v7.1C347.5,80.7,348.1,79.5,348.9,78.4z"/>
	<path fill="#565656" d="M384.2,101.5c-1,1.2-2.2,2.1-3.6,2.8c-1.4,0.7-3.1,1.1-4.9,1.1c-2.7,0-5-0.6-7-1.8c-2-1.2-3.5-3-4.5-5.2
		c-1-2.2-1.6-4.8-1.6-7.7c0-3.3,0.5-6.1,1.6-8.6c1.1-2.4,2.5-4.3,4.5-5.6c1.9-1.3,4.2-2,6.8-2c3.4,0,6,1,7.8,3.1
		c1.8,2.1,2.8,5.2,2.8,9.4h-17.7c-0.1,1-0.2,2.2-0.2,3.6c0,2.5,0.4,4.7,1.2,6.5c0.8,1.9,1.9,3.3,3.2,4.3c1.3,1,2.7,1.5,4.2,1.5
		c3.8,0,6.6-1.9,8.3-5.7l1.1,0.4C385.9,99.1,385.2,100.3,384.2,101.5z M380.2,80.8c-0.4-1.6-1-2.8-1.8-3.7c-0.8-0.9-1.9-1.4-3.1-1.4
		c-1.2,0-2.2,0.4-3.2,1.1c-1,0.7-1.8,1.9-2.5,3.4c-0.7,1.5-1.1,3.5-1.3,5.7h12.3C380.8,84.1,380.6,82.4,380.2,80.8z"/>
	<path fill="#565656" d="M399.9,101.8c0.3,0.6,0.7,1,1.4,1.2c0.6,0.2,1.5,0.4,2.5,0.4v1.2c-3.5-0.1-5.8-0.2-6.9-0.2
		s-3.4,0.1-6.9,0.2v-1.2c1.1,0,1.9-0.1,2.5-0.4c0.6-0.2,1.1-0.7,1.4-1.2c0.3-0.6,0.4-1.4,0.4-2.5V66.9c0-1.8-0.3-3-1-3.8
		c-0.6-0.8-1.8-1.2-3.4-1.2v-1.2c1.2,0.1,2.4,0.2,3.5,0.2c2.4,0,4.4-0.3,5.9-0.8v39.2C399.5,100.4,399.6,101.2,399.9,101.8z"/>
	<path fill="#565656" d="M452.7,102c-0.2-0.5-0.5-0.8-0.9-0.8c-0.3,0-0.7,0.2-1.2,0.5c-1.1,0.8-2.2,1.4-3.1,2c-1,0.5-2,0.9-3.3,1.2
		c-1.2,0.3-2.6,0.5-4.1,0.5c-3.6,0-6.8-0.8-9.5-2.4c-2.7-1.6-4.8-4-6.3-7.1c-1.5-3.1-2.2-6.8-2.2-11c0-4.2,0.8-7.9,2.3-11.1
		c1.5-3.2,3.7-5.7,6.4-7.5c2.7-1.8,5.8-2.7,9.3-2.7c2.3,0,4.2,0.3,5.8,1c1.6,0.6,3.2,1.6,4.7,2.7c0.4,0.3,0.8,0.5,1.1,0.5
		c0.8,0,1.3-1.1,1.4-3.4h1.3c-0.1,2.5-0.2,6.8-0.2,13H453c-0.3-1.7-0.5-3-0.8-4c-0.2-0.9-0.5-1.7-0.8-2.4c-0.3-0.7-0.7-1.3-1.3-2
		c-1.1-1.5-2.6-2.6-4.3-3.3c-1.8-0.7-3.6-1.1-5.7-1.1c-2.5,0-4.6,0.8-6.5,2.4c-1.8,1.6-3.3,3.9-4.3,6.9c-1,3-1.5,6.5-1.5,10.6
		c0,4.1,0.6,7.7,1.7,10.6c1.1,3,2.6,5.2,4.6,6.7c1.9,1.5,4.1,2.3,6.6,2.3c1.9,0,3.7-0.4,5.5-1.1c1.8-0.7,3.2-1.8,4.2-3.2
		c0.8-1,1.3-2.2,1.7-3.4c0.3-1.2,0.7-3.1,1-5.6h1.3c0,6.5,0.1,11.1,0.2,13.6h-1.3C453.1,103.4,452.9,102.6,452.7,102z"/>
	<path fill="#565656" d="M480.3,76.2c1.9,1.1,3.5,2.8,4.6,5.1c1.1,2.3,1.7,5.2,1.7,8.7c0,3.5-0.6,6.4-1.7,8.7
		c-1.1,2.3-2.6,4-4.6,5.1c-1.9,1.1-4.1,1.6-6.6,1.6c-2.5,0-4.7-0.5-6.6-1.6c-1.9-1.1-3.5-2.8-4.6-5.1c-1.1-2.3-1.7-5.2-1.7-8.7
		c0-3.5,0.6-6.4,1.7-8.7c1.1-2.3,2.6-4,4.6-5.1c1.9-1.1,4.1-1.6,6.6-1.6C476.2,74.6,478.4,75.1,480.3,76.2z M468.3,79.2
		c-1.3,2.3-2,5.9-2,10.8c0,4.9,0.7,8.4,2,10.8c1.3,2.3,3.1,3.5,5.4,3.5c2.3,0,4.1-1.2,5.4-3.5c1.3-2.3,2-5.9,2-10.8
		c0-4.9-0.7-8.5-2-10.8c-1.3-2.3-3.1-3.5-5.4-3.5C471.4,75.7,469.6,76.9,468.3,79.2z"/>
	<path fill="#565656" d="M498.2,98.6c0.6,0.3,1,0.8,1.3,1.3c0.3,0.6,0.5,1.2,0.5,1.8c0,0.6-0.2,1.2-0.5,1.8c-0.3,0.6-0.8,1-1.3,1.3
		c-0.6,0.3-1.2,0.5-1.8,0.5c-0.6,0-1.3-0.2-1.8-0.5c-0.6-0.3-1-0.8-1.3-1.3c-0.3-0.6-0.5-1.2-0.5-1.8c0-0.6,0.2-1.3,0.5-1.8
		c0.3-0.6,0.8-1,1.3-1.3c0.6-0.3,1.2-0.5,1.8-0.5C497,98.1,497.6,98.3,498.2,98.6z"/>
</g>
<g>
	<path fill="#565656" d="M224.2,166.8c0,0.7,0,1.6,0.1,2.5c-0.9,0-2.4-0.1-4.5-0.1c-2.5,0-4.5,0-5.8,0.1v-0.4c0.5,0,0.8-0.1,1-0.2
		c0.2-0.1,0.4-0.2,0.4-0.5c0.1-0.2,0.1-0.6,0.1-1.1v-9.8c0-0.5,0-0.9-0.1-1.1c-0.1-0.2-0.2-0.4-0.4-0.5c-0.2-0.1-0.6-0.1-1-0.2v-0.4
		c1.3,0,3.2,0.1,5.8,0.1c1.9,0,3.3,0,4.1-0.1c-0.1,0.9-0.1,1.6-0.1,2.3c0,0.5,0,0.9,0.1,1.2h-0.5c-0.1-0.9-0.2-1.5-0.4-1.9
		c-0.1-0.4-0.4-0.7-0.7-0.9c-0.3-0.2-0.9-0.3-1.6-0.3h-1.6c-0.5,0-0.8,0-1,0.1c-0.2,0.1-0.4,0.2-0.4,0.5c-0.1,0.2-0.1,0.6-0.1,1.1
		v4.7h1.3c0.7,0,1.1-0.2,1.3-0.6c0.2-0.4,0.4-0.8,0.4-1.2c0.1-0.4,0.1-0.7,0.1-0.8h0.5c0,0.7-0.1,1.3-0.1,1.9l0,0.9
		c0,0.7,0,1.6,0.1,2.8h-0.5c0-0.1-0.1-0.4-0.1-1c-0.1-0.5-0.2-1-0.5-1.2c-0.3-0.3-0.7-0.4-1.3-0.4h-1.3v4.8c0,0.5,0,0.9,0.1,1.1
		c0.1,0.2,0.2,0.4,0.4,0.5c0.2,0.1,0.6,0.1,1,0.1h1.5c0.8,0,1.5-0.1,1.9-0.3c0.4-0.2,0.7-0.6,0.9-1.1c0.2-0.5,0.3-1.2,0.4-2.1h0.5
		C224.2,165.7,224.2,166.2,224.2,166.8z"/>
	<path fill="#565656" d="M227.3,167.5c0.2,0.5,0.5,0.9,0.8,1.2c0.4,0.3,0.9,0.4,1.5,0.4c0.3,0,0.6-0.1,0.8-0.2
		c0.3-0.1,0.5-0.3,0.7-0.6c0.2-0.3,0.3-0.6,0.3-1.1c0-0.4-0.1-0.7-0.3-1c-0.2-0.3-0.4-0.5-0.7-0.8c-0.3-0.2-0.7-0.5-1.3-0.8
		c-0.7-0.4-1.2-0.8-1.5-1c-0.3-0.3-0.6-0.6-0.9-1c-0.2-0.4-0.4-0.8-0.4-1.3c0-0.6,0.1-1,0.4-1.4c0.3-0.4,0.6-0.7,1.1-0.9
		c0.4-0.2,0.9-0.3,1.5-0.3c0.5,0,0.9,0.1,1.3,0.2c0.4,0.1,0.7,0.3,0.9,0.5c0.1,0.1,0.3,0.2,0.3,0.2c0.2,0,0.4-0.3,0.4-0.9h0.5
		c-0.1,0.6-0.1,1.8-0.1,3.4h-0.5c-0.1-0.9-0.4-1.6-0.8-2.2c-0.4-0.6-1-0.9-1.9-0.9c-0.5,0-0.9,0.1-1.2,0.4c-0.3,0.3-0.5,0.6-0.5,1.1
		c0,0.5,0.2,0.8,0.5,1.1c0.3,0.3,0.7,0.6,1.1,0.9c0.4,0.3,0.8,0.5,0.9,0.6c0.6,0.4,1.1,0.7,1.5,1.1c0.4,0.3,0.7,0.7,0.9,1.1
		c0.2,0.4,0.3,0.9,0.3,1.4c0,0.6-0.2,1.1-0.5,1.5c-0.3,0.4-0.7,0.7-1.2,0.9c-0.5,0.2-1.1,0.3-1.7,0.3c-0.6,0-1.1-0.1-1.6-0.3
		c-0.3-0.1-0.5-0.3-0.8-0.5c-0.1-0.1-0.1-0.1-0.2-0.1c-0.2,0-0.3,0.2-0.4,0.7h-0.5c0.1-0.8,0.1-2.1,0.1-4h0.5
		C227,166.3,227.1,167,227.3,167.5z"/>
	<path fill="#565656" d="M240.8,159.1v0.4h-2.9v7.7c0,0.6,0.1,1,0.3,1.3c0.2,0.3,0.5,0.4,0.9,0.4c0.4,0,0.8-0.2,1.1-0.5
		c0.3-0.3,0.5-0.9,0.7-1.6l0.4,0.1c-0.3,1.8-1.2,2.7-2.6,2.7c-0.4,0-0.8-0.1-1.1-0.2c-0.3-0.1-0.5-0.3-0.8-0.5
		c-0.3-0.3-0.5-0.6-0.6-1.1s-0.2-1-0.2-1.7v-6.6h-1.9v-0.4h1.9v-3c0.7,0,1.3-0.1,1.8-0.3v3.3H240.8z"/>
	<path fill="#565656" d="M244.3,167.2c0.2,0.1,0.4,0.3,0.5,0.5c0.1,0.2,0.2,0.4,0.2,0.6c0,0.2-0.1,0.4-0.2,0.6
		c-0.1,0.2-0.3,0.3-0.5,0.5c-0.2,0.1-0.4,0.2-0.6,0.2c-0.2,0-0.4-0.1-0.6-0.2c-0.2-0.1-0.4-0.3-0.5-0.5c-0.1-0.2-0.2-0.4-0.2-0.6
		c0-0.2,0.1-0.4,0.2-0.6c0.1-0.2,0.3-0.4,0.5-0.5c0.2-0.1,0.4-0.2,0.6-0.2C243.9,167,244.1,167.1,244.3,167.2z"/>
	<path fill="#565656" d="M253.5,159.5c0.6-0.5,1.5-0.7,2.4-0.7c0.9,0,1.7,0.2,2.2,0.7c0.5,0.4,0.8,1.1,0.8,1.8
		c0,0.8-0.3,1.5-0.8,2.2c-0.5,0.7-1.3,1.4-2.2,2.3c-1,0.9-1.6,1.5-2,2h4c0.4,0,0.6,0,0.8-0.1c0.2-0.1,0.3-0.2,0.4-0.3
		c0.1-0.1,0.1-0.3,0.2-0.6h0.3c0,1.2,0,2.1,0.1,2.6c-0.3-0.1-1.3-0.1-3-0.1h-4.7V169c0.2-0.2,0.8-0.8,1.8-1.7c1-0.9,1.7-1.8,2.3-2.7
		c0.6-0.9,0.8-1.8,0.8-2.8c0-1.4-0.7-2.1-2-2.1c-1.1,0-2,0.6-2.7,1.9l-0.3-0.2C252.4,160.6,252.9,160,253.5,159.5z"/>
	<path fill="#565656" d="M269.1,159.4c0.7,0.4,1.3,1,1.7,1.8c0.4,0.8,0.6,1.7,0.6,2.7c0,1.1-0.2,2-0.6,2.8c-0.4,0.8-1,1.5-1.8,2
		c-0.8,0.5-1.6,0.7-2.6,0.7c-0.9,0-1.7-0.2-2.5-0.6c-0.7-0.4-1.3-1-1.7-1.8c-0.4-0.8-0.6-1.7-0.6-2.8c0-1,0.2-2,0.6-2.8
		c0.4-0.8,1-1.5,1.8-2c0.8-0.5,1.6-0.7,2.6-0.7C267.6,158.8,268.4,159,269.1,159.4z M265,159.8c-0.4,0.4-0.8,1-1,1.8
		c-0.2,0.8-0.4,1.7-0.4,2.7c0,1.1,0.1,2.1,0.4,2.8c0.3,0.7,0.6,1.3,1.1,1.6c0.5,0.3,1,0.5,1.6,0.5c0.6,0,1.1-0.2,1.5-0.6
		c0.4-0.4,0.8-1,1-1.8c0.2-0.8,0.4-1.7,0.4-2.8c0-1.1-0.1-2.1-0.4-2.8c-0.3-0.7-0.6-1.3-1.1-1.6c-0.5-0.3-1-0.5-1.6-0.5
		C265.9,159.1,265.4,159.3,265,159.8z"/>
	<path fill="#565656" d="M277.7,168.2c0.1,0.2,0.3,0.4,0.6,0.5c0.3,0.1,0.6,0.1,1.1,0.1v0.4c-1.4-0.1-2.4-0.1-2.7-0.1
		c-0.4,0-1.4,0-3.1,0.1v-0.4c0.7,0,1.2-0.1,1.6-0.4s0.5-0.7,0.5-1.3v-4.8c0-0.6-0.1-1.1-0.2-1.4c-0.1-0.3-0.4-0.5-0.7-0.6
		c-0.3-0.1-0.8-0.1-1.4-0.1v-0.4c1,0,1.8-0.1,2.4-0.3c0.6-0.2,1.2-0.4,1.7-0.8v8.4C277.5,167.7,277.6,168,277.7,168.2z"/>
	<path fill="#565656" d="M285.6,156.4c-0.6,0.5-1.2,1.2-1.7,2.1c-0.5,0.9-0.8,2.2-0.9,3.7c0.3-0.6,0.7-1,1.3-1.2
		c0.5-0.3,1.1-0.4,1.6-0.4c0.6,0,1.2,0.2,1.8,0.5c0.5,0.3,1,0.8,1.3,1.5c0.3,0.7,0.5,1.4,0.5,2.3c0,1-0.2,1.8-0.6,2.5
		s-0.9,1.2-1.6,1.6c-0.7,0.4-1.4,0.5-2.2,0.5c-0.8,0-1.6-0.2-2.2-0.7s-1.1-1.1-1.4-1.9c-0.3-0.8-0.5-1.9-0.5-3
		c0-1.9,0.4-3.4,1.1-4.7c0.7-1.3,1.6-2.3,2.6-3c1-0.7,2-1.1,3.1-1.3l0.1,0.4C287,155.6,286.2,156,285.6,156.4z M286.3,168.7
		c0.3-0.3,0.6-0.7,0.8-1.3c0.2-0.6,0.3-1.4,0.3-2.3c0-1.3-0.2-2.3-0.6-3c-0.4-0.6-0.9-0.9-1.6-0.9c-0.5,0-0.9,0.1-1.4,0.4
		c-0.5,0.3-0.8,0.7-1,1.3c0,0.3,0,0.7,0,1c0,1.3,0.1,2.4,0.3,3.1c0.2,0.8,0.5,1.3,0.9,1.7c0.3,0.3,0.7,0.5,1.1,0.5
		C285.6,169.2,286,169,286.3,168.7z"/>
</g>
</svg>
